<svg width="300" height="80" viewBox="0 0 300 80" fill="none" xmlns="http://www.w3.org/2000/svg">
  <svg x="0" y="0" width="80" height="80" viewBox="0 0 96 96">
    <circle cx="48" cy="48" r="48" fill="#F0B90B"/>
    <path d="M34.5355 42.4676L48.0002 29.0032L61.4717 42.4747L69.3063 34.6397L48.0002 13.3333L26.7007 34.6328L34.5355 42.4676Z" fill="white"/>
    <path d="M21.1683 40.1646L29.003 47.9993L21.1679 55.8344L13.3333 47.9997L21.1683 40.1646Z" fill="white"/>
    <path d="M34.5355 53.5322L48.0002 66.9962L61.4714 53.5254L69.3105 61.3562L69.3063 61.3602L48.0002 82.6666L26.7004 61.3672L26.6895 61.3564L34.5355 53.5322Z" fill="white"/>
    <path d="M82.6674 48.0007L74.8327 55.8353L66.9981 48.0007L74.8327 40.166L82.6674 48.0007Z" fill="white"/>
    <path d="M55.9466 47.996H55.9502L47.9999 40.0456L40.0457 47.9998L40.0565 48.0109L47.9999 55.9543L55.9539 47.9998L55.9466 47.996Z" fill="white"/>
  </svg>
  <text x="96" y="48" font-family="Space Grotesk, sans-serif" font-weight="700" font-size="28" fill="#1E2329">BNB Chain</text>
</svg>
