<svg xmlns="http://www.w3.org/2000/svg" viewBox="0 0 64 64" fill="none">
  <circle cx="32" cy="32" r="32" fill="#F0B90B"/>
  <path d="M32 16L24 24L27.2 27.2L32 22.4L36.8 27.2L40 24L32 16Z" fill="white"/>
  <path d="M16 32L19.2 28.8L22.4 32L19.2 35.2L16 32Z" fill="white"/>
  <path d="M32 48L24 40L27.2 36.8L32 41.6L36.8 36.8L40 40L32 48Z" fill="white"/>
  <path d="M41.6 32L44.8 28.8L48 32L44.8 35.2L41.6 32Z" fill="white"/>
  <path d="M35.2 32L32 28.8L28.8 32L32 35.2L35.2 32Z" fill="white"/>
</svg>
